<?xml version="1.0" encoding="utf-8"?>
<!-- Generator: Adobe Illustrator 21.0.1, SVG Export Plug-In . SVG Version: 6.00 Build 0)  -->
<svg version="1.1" id="Layer_1" xmlns="http://www.w3.org/2000/svg" xmlns:xlink="http://www.w3.org/1999/xlink" x="0px" y="0px"
	 viewBox="0 0 157 85" style="enable-background:new 0 0 157 85;" xml:space="preserve">
<style type="text/css">
	.st0{fill:#FFFFFF;}
	.st1{fill:#E67700;}
</style>
<path class="st0" d="M133.6,53.4c2.3,0,4.4-0.9,5.9-2.4c1.5-1.5,2.5-3.6,2.5-5.9V23.9c0-2.2-0.9-4.3-2.5-5.9
	c-1.5-1.5-3.6-2.4-5.9-2.4c-3.6,0-19.5,0-21.1,0c-2.2,0-4.3,0.9-5.9,2.4c-1.5,1.5-2.5,3.6-2.5,5.9h-14c0-6.2,2.5-11.8,6.5-15.8
	c4-4,9.6-6.5,15.8-6.5h21.1c6.2,0,11.8,2.5,15.8,6.5c4,4,6.6,9.6,6.6,15.8v21.3c0,6.2-2.5,11.8-6.6,15.8c-4.1,4.1-9.6,6.6-15.8,6.6
	V53.4z"/>
<path class="st1" d="M156,81c-10.1-0.3-15-5.1-19.9-9.7c-2.9-2.7-5.7-5.4-10.2-5.4c-3.9,0-7.1-3.2-7.1-7.1c0-3.9,3.2-7.1,7.1-7.1
	c10.2,0,15.1,4.7,20,9.4c2.8,2.6,5.6,5.3,10.1,5.7V81z"/>
<path class="st0" d="M52.9,1.5h29c6.2,0,11.8,2.5,15.8,6.6c4,4,6.6,9.6,6.6,15.8s-2.5,11.8-6.6,15.8c-1.4,1.4-3,2.7-4.8,3.7
	c2,1.5,3.9,3.1,5.7,4.8c6,5.4,11.4,11.3,16.8,18.7h-18c-2.7-3-5.3-5.7-8.2-8.3C84,53.9,78,49.7,70.7,45.3l0,0
	c-2.1-1.2-3.4-3.5-3.4-6.1c0.1-3.9,3.3-7,7.1-6.9c1.1,0,2.3,0,3.5,0c1.1,0,2.2,0,3.4,0c0.2,0,0.4,0,0.5,0c2.3,0,4.4-0.9,5.9-2.4
	c1.5-1.5,2.4-3.6,2.4-5.9c0-2.3-0.9-4.4-2.4-5.9c-1.5-1.5-3.6-2.4-5.9-2.4h-29V1.5z"/>
<path class="st0" d="M46.4,15.6H25.6c-2.7,0-4.8,2.2-4.8,4.8c0,1.3,0.5,2.5,1.4,3.4c0.8,0.8,2,1.4,3.3,1.4h21V15.6z M53.4,66.9h-7
	H22.5c-5.7,0-10.9-2.3-14.7-6.1C4,57,1.7,51.8,1.7,46.1c0-5.7,2.3-10.9,6.1-14.7c0.5-0.5,0.9-0.9,1.5-1.3c-1.7-2.8-2.6-6.1-2.6-9.6
	C6.6,10,15.1,1.5,25.6,1.5h35v14.1h-0.1v51.3H53.4L53.4,66.9z M25.3,39.4h-2.8c-1.9,0-3.5,0.8-4.7,2c-1.2,1.2-2,2.9-2,4.7
	c0,1.9,0.8,3.5,2,4.7c1.2,1.2,2.9,2,4.7,2h23.9V39.4H25.6C25.5,39.4,25.4,39.4,25.3,39.4z"/>
<g>
	<path class="st1" d="M9.1,75.8c1.1,0,2,0.5,2,1.9V80c0,1.4-0.9,1.9-2,1.9H7.6c-0.3,0-0.5-0.2-0.5-0.3v-5.5c0-0.2,0.2-0.3,0.5-0.3
		H9.1z M8.2,76.7V81h0.9c0.6,0,0.9-0.3,0.9-1v-2.3c0-0.7-0.3-1-0.9-1H8.2z"/>
	<path class="st1" d="M15.4,76.1c0-0.2,0.3-0.3,0.5-0.3c0.3,0,0.5,0.1,0.5,0.3v5.5c0,0.2-0.3,0.3-0.5,0.3c-0.3,0-0.5-0.1-0.5-0.3
		V76.1z"/>
	<path class="st1" d="M22.8,76.7c-0.6,0-0.9,0.3-0.9,1V80c0,0.7,0.3,1,0.9,1c0.5,0,0.9-0.3,0.9-1v-0.5H23c-0.2,0-0.3-0.2-0.3-0.4
		c0-0.2,0.1-0.4,0.3-0.4h1.4c0.2,0,0.3,0.2,0.3,0.4v1c0,1.4-0.9,1.9-2,1.9c-1.1,0-2-0.5-2-1.9v-2.4c0-1.4,0.9-1.9,1.9-1.9
		c1.2,0,2,0.6,2,1.6c0,0.4-0.2,0.5-0.5,0.5c-0.3,0-0.5-0.1-0.5-0.3C23.6,77.2,23.5,76.7,22.8,76.7z"/>
	<path class="st1" d="M29,76.1c0-0.2,0.3-0.3,0.5-0.3c0.3,0,0.5,0.1,0.5,0.3v5.5c0,0.2-0.3,0.3-0.5,0.3c-0.3,0-0.5-0.1-0.5-0.3V76.1
		z"/>
	<path class="st1" d="M38,75.8c0.2,0,0.3,0.3,0.3,0.5c0,0.3-0.1,0.5-0.3,0.5h-1.2v4.8c0,0.2-0.3,0.3-0.5,0.3c-0.3,0-0.5-0.1-0.5-0.3
		v-4.8h-1.2c-0.2,0-0.3-0.2-0.3-0.5c0-0.2,0.1-0.5,0.3-0.5H38z"/>
	<path class="st1" d="M41.4,81.5C41.4,81.4,41.4,81.4,41.4,81.5l1.6-5.4c0.1-0.3,0.4-0.4,0.7-0.4c0.3,0,0.6,0.1,0.7,0.4l1.6,5.3
		c0,0,0,0.1,0,0.1c0,0.3-0.4,0.5-0.7,0.5c-0.2,0-0.3-0.1-0.4-0.2l-0.3-1.1h-1.9l-0.3,1.1c0,0.2-0.2,0.2-0.4,0.2
		C41.8,81.9,41.4,81.7,41.4,81.5z M44.4,79.7l-0.7-2.6L43,79.7H44.4z"/>
	<path class="st1" d="M50.5,81.9c-0.2,0-0.5-0.1-0.5-0.3v-5.5c0-0.2,0.3-0.3,0.5-0.3c0.3,0,0.5,0.1,0.5,0.3V81h2.1
		c0.2,0,0.3,0.2,0.3,0.5c0,0.2-0.1,0.5-0.3,0.5H50.5z"/>
	<path class="st1" d="M65.1,80.3c0-1.3-2.7-0.9-2.7-2.9c0-1.3,1.1-1.7,2-1.7c0.5,0,1.6,0.1,1.6,0.7c0,0.2-0.1,0.6-0.4,0.6
		c-0.3,0-0.5-0.3-1.2-0.3c-0.6,0-1,0.2-1,0.6c0,1,2.7,0.7,2.7,2.9c0,1.2-0.8,1.8-2,1.8c-1.1,0-1.9-0.6-1.9-1c0-0.2,0.2-0.6,0.5-0.6
		c0.3,0,0.6,0.6,1.4,0.6C64.6,81,65.1,80.8,65.1,80.3z"/>
	<path class="st1" d="M70.2,80v-2.4c0-1.4,0.9-1.9,2-1.9c1.1,0,2,0.5,2,1.9V80c0,1.4-0.9,1.9-2,1.9C71.1,82,70.2,81.4,70.2,80z
		 M73.1,77.7c0-0.7-0.3-1-0.9-1c-0.6,0-0.9,0.3-0.9,1V80c0,0.7,0.3,1,0.9,1c0.5,0,0.9-0.3,0.9-1V77.7z"/>
	<path class="st1" d="M79,81.9c-0.2,0-0.5-0.1-0.5-0.3v-5.5c0-0.2,0.3-0.3,0.5-0.3c0.3,0,0.5,0.1,0.5,0.3V81h2.1
		c0.2,0,0.3,0.2,0.3,0.5c0,0.2-0.1,0.5-0.3,0.5H79z"/>
	<path class="st1" d="M88.7,76.1c0-0.2,0.3-0.3,0.5-0.3c0.3,0,0.5,0.1,0.5,0.3V80c0,1.4-0.9,1.9-2,1.9c-1.1,0-2-0.5-2-1.9v-3.9
		c0-0.2,0.3-0.3,0.5-0.3c0.3,0,0.5,0.1,0.5,0.3V80c0,0.7,0.3,1,0.9,1s0.9-0.3,0.9-1V76.1z"/>
	<path class="st1" d="M97.7,75.8c0.2,0,0.3,0.3,0.3,0.5c0,0.3-0.1,0.5-0.3,0.5h-1.2v4.8c0,0.2-0.3,0.3-0.5,0.3
		c-0.3,0-0.5-0.1-0.5-0.3v-4.8h-1.2c-0.2,0-0.3-0.2-0.3-0.5c0-0.2,0.1-0.5,0.3-0.5H97.7z"/>
	<path class="st1" d="M102,76.1c0-0.2,0.3-0.3,0.5-0.3c0.3,0,0.5,0.1,0.5,0.3v5.5c0,0.2-0.3,0.3-0.5,0.3c-0.3,0-0.5-0.1-0.5-0.3
		V76.1z"/>
	<path class="st1" d="M107.4,80v-2.4c0-1.4,0.9-1.9,2-1.9c1.1,0,2,0.5,2,1.9V80c0,1.4-0.9,1.9-2,1.9C108.3,82,107.4,81.4,107.4,80z
		 M110.3,77.7c0-0.7-0.3-1-0.9-1c-0.6,0-0.9,0.3-0.9,1V80c0,0.7,0.3,1,0.9,1c0.5,0,0.9-0.3,0.9-1V77.7z"/>
	<path class="st1" d="M118.6,81.6l-1.8-3.4v3.4c0,0.2-0.3,0.3-0.5,0.3c-0.3,0-0.5-0.1-0.5-0.3v-5.5c0-0.2,0.3-0.3,0.5-0.3
		c0.4,0,0.6,0.1,0.8,0.6l1.6,3.1v-3.4c0-0.2,0.3-0.3,0.5-0.3c0.3,0,0.5,0.1,0.5,0.3v5.5c0,0.2-0.3,0.3-0.5,0.3
		C118.9,81.9,118.7,81.8,118.6,81.6z"/>
	<path class="st1" d="M126.7,80.3c0-1.3-2.7-0.9-2.7-2.9c0-1.3,1.1-1.7,2-1.7c0.5,0,1.6,0.1,1.6,0.7c0,0.2-0.1,0.6-0.4,0.6
		c-0.3,0-0.5-0.3-1.2-0.3c-0.6,0-1,0.2-1,0.6c0,1,2.7,0.7,2.7,2.9c0,1.2-0.8,1.8-2,1.8c-1.1,0-1.9-0.6-1.9-1c0-0.2,0.2-0.6,0.5-0.6
		c0.3,0,0.6,0.6,1.4,0.6C126.3,81,126.7,80.8,126.7,80.3z"/>
</g>
<g>
</g>
<g>
</g>
<g>
</g>
<g>
</g>
<g>
</g>
<g>
</g>
<g>
</g>
<g>
</g>
<g>
</g>
<g>
</g>
<g>
</g>
</svg>
